<?xml version="1.0" encoding="utf-8"?><svg xmlns="http://www.w3.org/2000/svg" xmlns:xlink="http://www.w3.org/1999/xlink"><symbol viewBox="0 0 490.661 490.661" id="next" xmlns="http://www.w3.org/2000/svg"><path d="M453.352 236.091L48.019 1.424c-3.285-1.899-7.36-1.899-10.688 0a10.681 10.681 0 0 0-5.333 9.237v469.333c0 3.819 2.048 7.339 5.333 9.237a10.802 10.802 0 0 0 5.333 1.429c1.856 0 3.691-.469 5.355-1.429l405.333-234.667c3.285-1.92 5.312-5.44 5.312-9.237s-2.027-7.338-5.312-9.236z"/></symbol><symbol viewBox="0 0 56.966 56.966" id="search" xmlns="http://www.w3.org/2000/svg"><path d="M55.146 51.887L41.588 37.786A22.926 22.926 0 0 0 46.984 23c0-12.682-10.318-23-23-23s-23 10.318-23 23 10.318 23 23 23c4.761 0 9.298-1.436 13.177-4.162l13.661 14.208c.571.593 1.339.92 2.162.92.779 0 1.518-.297 2.079-.837a3.004 3.004 0 0 0 .083-4.242zM23.984 6c9.374 0 17 7.626 17 17s-7.626 17-17 17-17-7.626-17-17 7.626-17 17-17z"/></symbol><symbol viewBox="0 -10 511.991 511" id="star" xmlns="http://www.w3.org/2000/svg"><path d="M510.652 185.883a27.177 27.177 0 0 0-23.402-18.688l-147.797-13.418-58.41-136.75C276.73 6.98 266.918.497 255.996.497s-20.738 6.483-25.023 16.53l-58.41 136.75-147.82 13.418c-10.837 1-20.013 8.34-23.403 18.688a27.25 27.25 0 0 0 7.937 28.926L121 312.773 88.059 457.86c-2.41 10.668 1.73 21.7 10.582 28.098a27.087 27.087 0 0 0 15.957 5.184 27.14 27.14 0 0 0 13.953-3.86l127.445-76.203 127.422 76.203a27.197 27.197 0 0 0 29.934-1.324c8.851-6.398 12.992-17.43 10.582-28.098l-32.942-145.086 111.723-97.964a27.246 27.246 0 0 0 7.937-28.926zM258.45 409.605"/></symbol></svg>